<svg width="24" height="24" viewBox="0 0 24 24" fill="none" xmlns="http://www.w3.org/2000/svg">
<path d="M23.9921 8.25463C23.9899 8.23965 23.9861 8.22532 23.9836 8.21035C23.9785 8.18164 23.9731 8.15294 23.9655 8.12488C23.9611 8.10803 23.9548 8.09183 23.9495 8.07563C23.9412 8.05067 23.9331 8.02574 23.923 8.00143C23.9159 7.98458 23.9078 7.96773 23.8999 7.95153C23.8893 7.92854 23.8776 7.90606 23.8649 7.88419C23.8554 7.86794 23.8453 7.85234 23.8355 7.83676C23.8218 7.81558 23.8073 7.79496 23.7919 7.77496C23.7805 7.75992 23.7687 7.74516 23.7566 7.73068C23.7402 7.71172 23.723 7.6934 23.7051 7.67579C23.6916 7.66211 23.6783 7.64836 23.6641 7.63588C23.6451 7.61908 23.6257 7.60287 23.6057 7.58726C23.5903 7.5754 23.5751 7.56355 23.559 7.55231C23.553 7.54857 23.5477 7.54358 23.542 7.53981L12.5727 0.314755C12.4033 0.203125 12.2042 0.143555 12.0006 0.143555C11.797 0.143555 11.5979 0.203125 11.4285 0.314755L0.459256 7.53981C0.453596 7.54355 0.448227 7.54855 0.442252 7.55231C0.426122 7.56352 0.410964 7.57538 0.39583 7.58726C0.375726 7.60269 0.356253 7.61891 0.337458 7.63588C0.322932 7.64839 0.309693 7.66211 0.296065 7.67579C0.278253 7.69337 0.261201 7.71168 0.244956 7.73068C0.232664 7.74506 0.220664 7.76003 0.209271 7.77496C0.194013 7.79497 0.179588 7.81559 0.166033 7.83676C0.155645 7.85226 0.145753 7.86807 0.136373 7.88419C0.123799 7.90618 0.112097 7.92864 0.101296 7.95153C0.0934252 7.96773 0.0852147 7.98458 0.0782673 8.00143C0.068162 8.02574 0.0599758 8.05067 0.0517652 8.07563C0.0463968 8.09183 0.0403968 8.10806 0.0356357 8.12488C0.028081 8.15294 0.0230284 8.18164 0.0176599 8.21035C0.0151579 8.22532 0.0113441 8.23965 0.0094494 8.25463C0.00325996 8.29865 0.000102903 8.34304 0 8.38749L0 15.6126C0 15.6575 0.0034494 15.7018 0.0094494 15.7461C0.0113441 15.7604 0.0151579 15.7754 0.0176599 15.7896C0.0230284 15.8184 0.028081 15.847 0.0356357 15.8751C0.0403968 15.892 0.0463968 15.9082 0.0517652 15.9244C0.0599515 15.9493 0.068162 15.9743 0.0782673 15.9992C0.0852147 16.0161 0.0934252 16.0323 0.101296 16.0486C0.112373 16.0715 0.123717 16.094 0.136373 16.1165C0.145822 16.1321 0.155612 16.1476 0.166033 16.1633C0.179588 16.1844 0.194013 16.2051 0.209271 16.2251C0.220664 16.2406 0.232664 16.255 0.244956 16.2693C0.261085 16.288 0.278138 16.3067 0.296065 16.3242C0.309693 16.3379 0.322932 16.3516 0.337458 16.3641C0.356227 16.3811 0.375701 16.3973 0.39583 16.4128C0.410951 16.4248 0.426432 16.4365 0.442252 16.4476C0.448227 16.4514 0.453596 16.4564 0.459256 16.4601L11.4285 23.6852C11.5979 23.797 11.7971 23.8567 12.0008 23.8567C12.2044 23.8566 12.4034 23.7969 12.5727 23.6852L23.542 16.4601C23.5477 16.4565 23.5529 16.4514 23.559 16.4476C23.5751 16.4365 23.5903 16.4247 23.6057 16.4128C23.6257 16.3972 23.6452 16.3809 23.6641 16.3641C23.6783 16.3516 23.6916 16.3379 23.7051 16.3242C23.723 16.3066 23.7401 16.2883 23.7566 16.2693C23.7689 16.255 23.7806 16.2402 23.7919 16.2251C23.8073 16.2051 23.8218 16.1845 23.8355 16.1633C23.8453 16.1476 23.8554 16.1321 23.8648 16.1165C23.8778 16.094 23.8891 16.0715 23.8999 16.0486C23.9077 16.0323 23.9159 16.0161 23.9229 15.9992C23.933 15.9743 23.9412 15.9493 23.9494 15.9244C23.9548 15.9082 23.9611 15.892 23.9655 15.8751C23.9731 15.847 23.9784 15.8184 23.9835 15.7896C23.9861 15.7753 23.9899 15.7604 23.992 15.7461C23.9977 15.7017 24.0012 15.6575 24.0012 15.6126V8.38747C24.0011 8.34304 23.998 8.29867 23.9921 8.25463V8.25463ZM13.032 3.06659L21.1128 8.38871L17.5033 10.7744L13.032 7.81927V3.06659V3.06659ZM10.9693 3.06659V7.81927L6.49815 10.7744L2.88846 8.38871L10.9693 3.06659V3.06659ZM2.06274 10.2948L4.64313 12L2.06274 13.7053V10.2948ZM10.9693 20.9335L2.88846 15.6113L6.49815 13.2262L10.9693 16.1808V20.9335V20.9335ZM12.0008 14.4107L8.35288 12L12.0008 9.58936L15.6484 12L12.0008 14.4107ZM13.032 20.9335V16.1808L17.5033 13.2262L21.1128 15.6113L13.032 20.9335V20.9335ZM21.9385 13.7053L19.3584 12L21.9385 10.2948V13.7053Z" fill="white"/>
</svg>
