<svg width="40" height="60" viewBox="0 0 40 60" fill="none" xmlns="http://www.w3.org/2000/svg">
<path d="M10.0779 59.9997C15.5194 59.9997 19.9356 55.5197 19.9356 49.9996V39.9995H10.0779C4.63647 39.9995 0.220215 44.4796 0.220215 49.9996C0.220215 55.5197 4.63647 59.9997 10.0779 59.9997Z" fill="#0ACF83"/>
<path d="M0.220215 29.9996C0.220215 24.4796 4.63647 19.9995 10.0779 19.9995H19.9356V39.9997H10.0779C4.63647 39.9997 0.220215 35.5197 0.220215 29.9996Z" fill="#A259FF"/>
<path d="M0.220215 10.0001C0.220215 4.48004 4.63647 0 10.0779 0H19.9356V20.0002H10.0779C4.63647 20.0002 0.220215 15.5201 0.220215 10.0001Z" fill="#F24E1E"/>
<path d="M19.9351 0H29.7928C35.2342 0 39.6505 4.48004 39.6505 10.0001C39.6505 15.5201 35.2342 20.0002 29.7928 20.0002H19.9351V0Z" fill="#FF7262"/>
<path d="M39.6505 29.9996C39.6505 35.5197 35.2342 39.9997 29.7928 39.9997C24.3513 39.9997 19.9351 35.5197 19.9351 29.9996C19.9351 24.4796 24.3513 19.9995 29.7928 19.9995C35.2342 19.9995 39.6505 24.4796 39.6505 29.9996Z" fill="#1ABCFE"/>
</svg>
