<svg width="60" height="60" viewBox="0 0 60 60" fill="none" xmlns="http://www.w3.org/2000/svg">
<path d="M0.446777 0H59.5924V60H0.446777V0Z" fill="#F7DF1E"/>
<path d="M15.988 50.1355L20.5141 47.3567C21.3874 48.9273 22.1817 50.2562 24.0871 50.2562C25.9134 50.2562 27.0651 49.5315 27.0651 46.7124V27.541H32.6232V46.7921C32.6232 52.632 29.2487 55.2903 24.3253 55.2903C19.8789 55.2903 17.298 52.9543 15.9878 50.135" fill="black"/>
<path d="M35.6521 49.5315L40.1777 46.8734C41.3691 48.8471 42.9175 50.297 45.6567 50.297C47.9599 50.297 49.4284 49.1288 49.4284 47.5177C49.4284 45.5846 47.9197 44.8998 45.3788 43.7724L43.9895 43.1677C39.9794 41.4364 37.3195 39.2614 37.3195 34.67C37.3195 30.4409 40.4956 27.2188 45.4585 27.2188C48.992 27.2188 51.5329 28.4675 53.3591 31.7298L49.0313 34.5493C48.0782 32.8175 47.0464 32.1329 45.4583 32.1329C43.8304 32.1329 42.7981 33.1801 42.7981 34.5493C42.7981 36.2408 43.8304 36.9259 46.2124 37.973L47.6018 38.577C52.3265 40.6313 54.9865 42.7255 54.9865 47.4373C54.9865 52.5125 51.0561 55.2913 45.7757 55.2913C40.6145 55.2913 37.2795 52.7942 35.6519 49.5317" fill="black"/>
</svg>
