<svg width="53" height="60" viewBox="0 0 53 60" fill="none" xmlns="http://www.w3.org/2000/svg">
<path d="M26.6709 59.9998C25.8559 59.9998 25.0952 59.7793 24.3888 59.3935L17.1619 55.0388C16.0752 54.4325 16.6186 54.212 16.9446 54.1018C18.4116 53.6057 18.6833 53.4955 20.2047 52.6134C20.3679 52.5031 20.5852 52.5582 20.748 52.6685L26.2905 56.031C26.5079 56.1412 26.7796 56.1412 26.9426 56.031L48.6231 43.298C48.8404 43.1877 48.9491 42.9673 48.9491 42.6917V17.2804C48.9491 17.0048 48.8404 16.7843 48.6231 16.674L26.9426 3.99595C26.7252 3.88571 26.4535 3.88571 26.2905 3.99595L4.61003 16.6743C4.39269 16.7845 4.28402 17.0601 4.28402 17.2806V42.6917C4.28402 42.9121 4.39269 43.1877 4.61003 43.298L10.5329 46.7705C13.7389 48.4241 15.749 46.4949 15.749 44.5657V19.4851C15.749 19.1544 16.0209 18.8237 16.4012 18.8237H19.1725C19.4985 18.8237 19.8245 19.0993 19.8245 19.4851V44.5655C19.8245 48.9202 17.4879 51.4557 13.4126 51.4557C12.1629 51.4557 11.1849 51.4557 8.41386 50.0777L2.70832 46.7705C1.29562 45.9435 0.42627 44.4002 0.42627 42.7466V17.3357C0.42627 15.6821 1.29562 14.1388 2.70832 13.3118L24.3888 0.578754C25.7472 -0.192918 27.5946 -0.192918 28.9529 0.578754L50.6335 13.3118C52.0462 14.1386 52.9155 15.6819 52.9155 17.3357V42.7468C52.9155 44.4004 52.0462 45.9437 50.6335 46.7705L28.9529 59.5039C28.2466 59.8346 27.4316 60 26.6709 60V59.9998ZM33.3542 42.5261C23.8453 42.5261 21.8892 38.1165 21.8892 34.3682C21.8892 34.0375 22.1609 33.7068 22.5413 33.7068H25.3667C25.6927 33.7068 25.9645 33.9273 25.9645 34.258C26.3992 37.1793 27.6489 38.6126 33.4086 38.6126C37.9729 38.6126 39.9291 37.5653 39.9291 35.085C39.9291 33.6517 39.3858 32.6044 32.2676 31.8876C26.3449 31.2813 22.6499 29.9585 22.6499 25.1631C22.6499 20.698 26.3447 18.0522 32.5392 18.0522C39.4943 18.0522 42.9175 20.4775 43.3522 25.7692C43.3522 25.9345 43.2979 26.0999 43.1892 26.2652C43.0805 26.3755 42.9175 26.4857 42.7545 26.4857H39.9291C39.6573 26.4857 39.3858 26.2652 39.3312 25.9896C38.6792 22.9581 36.9949 21.9659 32.5392 21.9659C27.5404 21.9659 26.9426 23.7297 26.9426 25.0526C26.9426 26.6513 27.6489 27.1472 34.3866 28.0291C41.0702 28.911 44.2216 30.1789 44.2216 34.9194C44.1672 39.7701 40.2551 42.5261 33.3542 42.5261V42.5261Z" fill="#539E43"/>
</svg>
