<svg width="68" height="60" viewBox="0 0 68 60" fill="none" xmlns="http://www.w3.org/2000/svg">
<path d="M33.9471 35.9489C37.2245 35.9489 39.8814 33.2536 39.8814 29.9288C39.8814 26.604 37.2245 23.9087 33.9471 23.9087C30.6696 23.9087 28.0127 26.604 28.0127 29.9288C28.0127 33.2536 30.6696 35.9489 33.9471 35.9489Z" fill="#00D8FF"/>
<path d="M33.9522 43.7485C26.8194 43.9235 19.7045 42.9482 12.8733 40.8589C9.71771 39.8441 6.77453 38.2455 4.19252 36.1439C3.20725 35.426 2.38674 34.5003 1.7873 33.4304C1.18786 32.3605 0.823672 31.1718 0.719727 29.9456C0.719727 25.9652 5.03045 22.0641 12.2514 19.5116C19.2652 17.2499 26.5934 16.1537 33.9522 16.2656C41.2128 16.1627 48.4429 17.239 55.3682 19.4538C58.4072 20.4367 61.2506 21.958 63.7665 23.9472C64.7349 24.6317 65.5431 25.5238 66.1338 26.5604C66.7245 27.597 67.0833 28.7527 67.1847 29.9456C67.1847 34.0827 62.366 38.275 54.6038 40.8805C47.9049 42.9018 40.9401 43.869 33.9522 43.7485V43.7485ZM33.9522 19.1456C26.9119 19.0501 19.9016 20.0922 13.1843 22.2327C6.53778 24.5854 3.55873 27.8025 3.55873 29.9384C3.55873 32.1731 6.76092 35.6864 13.792 38.1258C20.3271 40.1144 27.1315 41.0402 33.9522 40.8685C40.6376 40.9898 47.302 40.0721 53.7137 38.1474C61.0129 35.6936 64.3362 32.1755 64.3362 29.9456C64.2164 29.1804 63.9415 28.4487 63.5289 27.7968C63.1162 27.1448 62.5748 26.5867 61.9387 26.1578C59.6878 24.3931 57.1478 23.0448 54.4353 22.1749C47.8102 20.0649 40.8954 19.0422 33.9522 19.1456V19.1456Z" fill="#00D8FF"/>
<path d="M20.46 59.9637C19.3527 59.9894 18.2584 59.7169 17.2887 59.1738C13.8895 57.1848 12.7121 51.4488 14.1387 43.8274C15.7117 36.5337 18.4371 29.546 22.2095 23.1351C25.7481 16.7035 30.2783 10.8877 35.6283 5.90804C37.9858 3.72806 40.7054 1.98907 43.661 0.771701C44.7301 0.263459 45.8963 0 47.0769 0C48.2575 0 49.4237 0.263459 50.4927 0.771701C54.0272 2.8378 55.1975 9.16612 53.5477 17.2884C51.9262 24.1864 49.2716 30.7913 45.6764 36.873C42.2623 43.2287 37.8747 48.9939 32.6777 53.9532C30.2346 56.2186 27.3993 58.0058 24.315 59.2244C23.0802 59.6893 21.7769 59.9392 20.46 59.9637V59.9637ZM24.6687 24.5655C21.0703 30.7044 18.4581 37.3852 16.9303 44.3572C15.6176 51.3766 16.878 55.5979 18.7106 56.6719C20.6096 57.7868 25.2194 56.7297 30.8167 51.7691C35.7779 47.0179 39.9657 41.4993 43.2243 35.4185C46.6684 29.6044 49.2149 23.2896 50.7752 16.6936C52.3276 9.04812 50.9864 4.3669 49.0827 3.25439C48.3692 2.97705 47.6067 2.85289 46.8435 2.88978C46.0802 2.92667 45.3328 3.1238 44.6485 3.4687C42.0177 4.57001 39.5989 6.13351 37.5035 8.08732C32.3921 12.8571 28.0648 18.4249 24.6853 24.58L24.6687 24.5655Z" fill="#00D8FF"/>
<path d="M47.4345 59.9984C44.2181 59.9984 40.1329 58.0238 35.8791 54.313C30.4354 49.2881 25.8286 43.4032 22.2372 36.8861C18.5121 30.5634 15.8083 23.6769 14.2281 16.4876C13.5429 13.3246 13.4159 10.0634 13.8531 6.85544C13.9542 5.66541 14.3114 4.51235 14.8995 3.4776C15.4877 2.44284 16.2924 1.55158 17.257 0.866653C20.7868 -1.20667 26.7758 0.924446 32.8882 6.42922C37.9694 11.2987 42.2844 16.93 45.6827 23.1265C49.4054 29.3016 52.1376 36.0373 53.7772 43.0819C54.492 46.361 54.6022 49.7459 54.1024 53.0657C53.9835 54.2899 53.605 55.4736 52.9928 56.5356C52.3807 57.5976 51.5494 58.5127 50.556 59.2182C49.6021 59.7545 48.5248 60.0238 47.4345 59.9984V59.9984ZM24.694 35.4364C28.1393 41.6647 32.5399 47.2969 37.7306 52.1217C43.0692 56.7813 47.304 57.783 49.1246 56.697C51.0236 55.5773 52.4241 51.0068 50.9809 43.6117C49.3997 36.8859 46.7791 30.4564 43.2164 24.5617C39.9734 18.631 35.8548 13.2388 31.0034 8.57237C25.2495 3.39028 20.5827 2.23201 18.6813 3.34934C18.0887 3.83789 17.6023 4.44578 17.253 5.13463C16.9037 5.82348 16.699 6.57832 16.6517 7.3515C16.2743 10.2125 16.3973 13.1185 17.0149 15.9361C18.5348 22.8114 21.128 29.3961 24.6964 35.4412L24.694 35.4364Z" fill="#00D8FF"/>
</svg>
