<svg width="99" height="60" viewBox="0 0 99 60" fill="none" xmlns="http://www.w3.org/2000/svg">
<path d="M49.6562 0C36.5129 0 28.2979 6.6668 25.0122 20C29.941 13.3332 35.6912 10.8332 42.263 12.5C46.0124 13.4508 48.6924 16.2105 51.659 19.2648C56.4915 24.241 62.0842 30 74.3003 30C87.4436 30 95.6586 23.3332 98.9443 10C94.0155 16.6668 88.2654 19.1668 81.6935 17.5C77.9441 16.5492 75.2641 13.7895 72.2976 10.7352C67.465 5.75898 61.8724 0 49.6562 0ZM25.0122 30C11.8688 30 3.65391 36.6668 0.368164 50C5.29697 43.3332 11.0471 40.8332 17.619 42.5C21.3684 43.4508 24.0484 46.2105 27.0149 49.2648C31.8475 54.241 37.4401 60 49.6562 60C62.7996 60 71.0145 53.3332 74.3003 40C69.3715 46.6668 63.6213 49.1668 57.0495 47.5C53.3001 46.5492 50.6201 43.7894 47.6535 40.7352C42.821 35.759 37.2283 30 25.0122 30Z" fill="url(#paint0_linear)"/>
<defs>
<linearGradient id="paint0_linear" x1="-2.37028" y1="19.2" x2="83.3712" y2="67.9331" gradientUnits="userSpaceOnUse">
<stop stop-color="#2298BD"/>
<stop offset="1" stop-color="#0ED7B5"/>
</linearGradient>
</defs>
</svg>
